<mxfile host="app.diagrams.net" modified="2021-05-02T15:08:23.920Z" agent="5.0 (Windows NT 10.0; Win64; x64) AppleWebKit/537.36 (KHTML, like Gecko) Chrome/87.0.4280.141 Safari/537.36 OPR/73.0.3856.438" etag="MG-n1W6DFq6KmehtNy65" version="14.6.6" type="github" pages="2">
  <diagram id="Uh3lgJ0IlZQ0Z_tGh_ES" name="Page-1">
    <mxGraphModel dx="1151" dy="694" grid="1" gridSize="10" guides="1" tooltips="1" connect="1" arrows="1" fold="1" page="1" pageScale="1" pageWidth="827" pageHeight="1169" math="0" shadow="0">
      <root>
        <mxCell id="0" />
        <mxCell id="1" parent="0" />
        <mxCell id="DUNPQGVu7jWI2Fl0PFPO-3" style="edgeStyle=orthogonalEdgeStyle;orthogonalLoop=1;jettySize=auto;html=1;curved=1;" parent="1" source="DUNPQGVu7jWI2Fl0PFPO-1" target="DUNPQGVu7jWI2Fl0PFPO-2" edge="1">
          <mxGeometry relative="1" as="geometry" />
        </mxCell>
        <mxCell id="DUNPQGVu7jWI2Fl0PFPO-1" value="start" style="ellipse;whiteSpace=wrap;html=1;" parent="1" vertex="1">
          <mxGeometry x="284" y="20" width="120" height="80" as="geometry" />
        </mxCell>
        <mxCell id="DUNPQGVu7jWI2Fl0PFPO-6" style="edgeStyle=orthogonalEdgeStyle;orthogonalLoop=1;jettySize=auto;html=1;curved=1;" parent="1" source="DUNPQGVu7jWI2Fl0PFPO-2" target="DUNPQGVu7jWI2Fl0PFPO-5" edge="1">
          <mxGeometry relative="1" as="geometry" />
        </mxCell>
        <mxCell id="DUNPQGVu7jWI2Fl0PFPO-2" value="input: a, b, c, d, e, f, g, h, i, j" style="whiteSpace=wrap;html=1;" parent="1" vertex="1">
          <mxGeometry x="284" y="140" width="120" height="60" as="geometry" />
        </mxCell>
        <mxCell id="DUNPQGVu7jWI2Fl0PFPO-9" value="no" style="edgeStyle=orthogonalEdgeStyle;orthogonalLoop=1;jettySize=auto;html=1;curved=1;" parent="1" source="DUNPQGVu7jWI2Fl0PFPO-5" target="DUNPQGVu7jWI2Fl0PFPO-8" edge="1">
          <mxGeometry relative="1" as="geometry" />
        </mxCell>
        <mxCell id="lGQirS0EhyKLhU8pr_Ol-6" value="yes" style="edgeStyle=orthogonalEdgeStyle;orthogonalLoop=1;jettySize=auto;html=1;entryX=0;entryY=0.5;entryDx=0;entryDy=0;curved=1;" edge="1" parent="1" source="DUNPQGVu7jWI2Fl0PFPO-5" target="lGQirS0EhyKLhU8pr_Ol-5">
          <mxGeometry relative="1" as="geometry" />
        </mxCell>
        <mxCell id="DUNPQGVu7jWI2Fl0PFPO-5" value="a &amp;gt; 5" style="rhombus;whiteSpace=wrap;html=1;" parent="1" vertex="1">
          <mxGeometry x="304" y="240" width="80" height="80" as="geometry" />
        </mxCell>
        <mxCell id="lGQirS0EhyKLhU8pr_Ol-8" value="yes" style="edgeStyle=orthogonalEdgeStyle;orthogonalLoop=1;jettySize=auto;html=1;curved=1;" edge="1" parent="1" source="DUNPQGVu7jWI2Fl0PFPO-8" target="lGQirS0EhyKLhU8pr_Ol-7">
          <mxGeometry relative="1" as="geometry" />
        </mxCell>
        <mxCell id="lGQirS0EhyKLhU8pr_Ol-37" value="no" style="edgeStyle=orthogonalEdgeStyle;orthogonalLoop=1;jettySize=auto;html=1;curved=1;" edge="1" parent="1" source="DUNPQGVu7jWI2Fl0PFPO-8" target="DUNPQGVu7jWI2Fl0PFPO-10">
          <mxGeometry relative="1" as="geometry" />
        </mxCell>
        <mxCell id="DUNPQGVu7jWI2Fl0PFPO-8" value="b &amp;gt; 5" style="rhombus;whiteSpace=wrap;html=1;" parent="1" vertex="1">
          <mxGeometry x="304" y="360" width="80" height="80" as="geometry" />
        </mxCell>
        <mxCell id="lGQirS0EhyKLhU8pr_Ol-10" value="yes" style="edgeStyle=orthogonalEdgeStyle;orthogonalLoop=1;jettySize=auto;html=1;entryX=0;entryY=0.5;entryDx=0;entryDy=0;curved=1;" edge="1" parent="1" source="DUNPQGVu7jWI2Fl0PFPO-10" target="lGQirS0EhyKLhU8pr_Ol-9">
          <mxGeometry relative="1" as="geometry" />
        </mxCell>
        <mxCell id="lGQirS0EhyKLhU8pr_Ol-38" value="no" style="edgeStyle=orthogonalEdgeStyle;orthogonalLoop=1;jettySize=auto;html=1;curved=1;" edge="1" parent="1" source="DUNPQGVu7jWI2Fl0PFPO-10" target="DUNPQGVu7jWI2Fl0PFPO-12">
          <mxGeometry relative="1" as="geometry" />
        </mxCell>
        <mxCell id="DUNPQGVu7jWI2Fl0PFPO-10" value="c &amp;gt; 5" style="rhombus;whiteSpace=wrap;html=1;" parent="1" vertex="1">
          <mxGeometry x="304" y="480" width="80" height="80" as="geometry" />
        </mxCell>
        <mxCell id="lGQirS0EhyKLhU8pr_Ol-12" value="yes" style="edgeStyle=orthogonalEdgeStyle;orthogonalLoop=1;jettySize=auto;html=1;curved=1;" edge="1" parent="1" source="DUNPQGVu7jWI2Fl0PFPO-12" target="lGQirS0EhyKLhU8pr_Ol-11">
          <mxGeometry relative="1" as="geometry" />
        </mxCell>
        <mxCell id="lGQirS0EhyKLhU8pr_Ol-39" value="no" style="edgeStyle=orthogonalEdgeStyle;orthogonalLoop=1;jettySize=auto;html=1;curved=1;" edge="1" parent="1" source="DUNPQGVu7jWI2Fl0PFPO-12" target="DUNPQGVu7jWI2Fl0PFPO-14">
          <mxGeometry relative="1" as="geometry" />
        </mxCell>
        <mxCell id="DUNPQGVu7jWI2Fl0PFPO-12" value="d &amp;gt; 5" style="rhombus;whiteSpace=wrap;html=1;" parent="1" vertex="1">
          <mxGeometry x="304" y="600" width="80" height="80" as="geometry" />
        </mxCell>
        <mxCell id="lGQirS0EhyKLhU8pr_Ol-40" value="no" style="edgeStyle=orthogonalEdgeStyle;orthogonalLoop=1;jettySize=auto;html=1;curved=1;" edge="1" parent="1" source="DUNPQGVu7jWI2Fl0PFPO-14" target="DUNPQGVu7jWI2Fl0PFPO-16">
          <mxGeometry relative="1" as="geometry">
            <Array as="points">
              <mxPoint x="344" y="810" />
              <mxPoint x="344" y="810" />
            </Array>
          </mxGeometry>
        </mxCell>
        <mxCell id="qg0bX45iYKr7TYXmTfEr-4" value="yes" style="edgeStyle=orthogonalEdgeStyle;curved=1;rounded=1;sketch=0;orthogonalLoop=1;jettySize=auto;html=1;" edge="1" parent="1" source="DUNPQGVu7jWI2Fl0PFPO-14" target="lGQirS0EhyKLhU8pr_Ol-13">
          <mxGeometry relative="1" as="geometry" />
        </mxCell>
        <mxCell id="DUNPQGVu7jWI2Fl0PFPO-14" value="e &amp;gt; 5" style="rhombus;whiteSpace=wrap;html=1;" parent="1" vertex="1">
          <mxGeometry x="304" y="720" width="80" height="80" as="geometry" />
        </mxCell>
        <mxCell id="lGQirS0EhyKLhU8pr_Ol-41" value="no" style="edgeStyle=orthogonalEdgeStyle;orthogonalLoop=1;jettySize=auto;html=1;entryX=0.5;entryY=0;entryDx=0;entryDy=0;curved=1;" edge="1" parent="1" source="DUNPQGVu7jWI2Fl0PFPO-16" target="DUNPQGVu7jWI2Fl0PFPO-18">
          <mxGeometry relative="1" as="geometry" />
        </mxCell>
        <mxCell id="qg0bX45iYKr7TYXmTfEr-5" value="yes" style="edgeStyle=orthogonalEdgeStyle;curved=1;rounded=1;sketch=0;orthogonalLoop=1;jettySize=auto;html=1;" edge="1" parent="1" source="DUNPQGVu7jWI2Fl0PFPO-16" target="lGQirS0EhyKLhU8pr_Ol-15">
          <mxGeometry relative="1" as="geometry" />
        </mxCell>
        <mxCell id="DUNPQGVu7jWI2Fl0PFPO-16" value="f &amp;gt; 5" style="rhombus;whiteSpace=wrap;html=1;" parent="1" vertex="1">
          <mxGeometry x="304" y="840" width="80" height="80" as="geometry" />
        </mxCell>
        <mxCell id="lGQirS0EhyKLhU8pr_Ol-43" value="no" style="edgeStyle=orthogonalEdgeStyle;orthogonalLoop=1;jettySize=auto;html=1;curved=1;" edge="1" parent="1" source="DUNPQGVu7jWI2Fl0PFPO-18" target="DUNPQGVu7jWI2Fl0PFPO-20">
          <mxGeometry relative="1" as="geometry" />
        </mxCell>
        <mxCell id="qg0bX45iYKr7TYXmTfEr-6" value="yes" style="edgeStyle=orthogonalEdgeStyle;curved=1;rounded=1;sketch=0;orthogonalLoop=1;jettySize=auto;html=1;" edge="1" parent="1" source="DUNPQGVu7jWI2Fl0PFPO-18" target="lGQirS0EhyKLhU8pr_Ol-17">
          <mxGeometry relative="1" as="geometry" />
        </mxCell>
        <mxCell id="DUNPQGVu7jWI2Fl0PFPO-18" value="g &amp;gt; 5" style="rhombus;whiteSpace=wrap;html=1;" parent="1" vertex="1">
          <mxGeometry x="304" y="960" width="80" height="80" as="geometry" />
        </mxCell>
        <mxCell id="lGQirS0EhyKLhU8pr_Ol-44" value="no" style="edgeStyle=orthogonalEdgeStyle;orthogonalLoop=1;jettySize=auto;html=1;entryX=0.5;entryY=0;entryDx=0;entryDy=0;curved=1;" edge="1" parent="1" source="DUNPQGVu7jWI2Fl0PFPO-20" target="lGQirS0EhyKLhU8pr_Ol-1">
          <mxGeometry relative="1" as="geometry" />
        </mxCell>
        <mxCell id="qg0bX45iYKr7TYXmTfEr-7" value="yes" style="edgeStyle=orthogonalEdgeStyle;curved=1;rounded=1;sketch=0;orthogonalLoop=1;jettySize=auto;html=1;" edge="1" parent="1" source="DUNPQGVu7jWI2Fl0PFPO-20" target="lGQirS0EhyKLhU8pr_Ol-19">
          <mxGeometry relative="1" as="geometry" />
        </mxCell>
        <mxCell id="DUNPQGVu7jWI2Fl0PFPO-20" value="h &amp;gt; 5" style="rhombus;whiteSpace=wrap;html=1;" parent="1" vertex="1">
          <mxGeometry x="304" y="1080" width="80" height="80" as="geometry" />
        </mxCell>
        <mxCell id="lGQirS0EhyKLhU8pr_Ol-4" value="no" style="edgeStyle=orthogonalEdgeStyle;orthogonalLoop=1;jettySize=auto;html=1;curved=1;" edge="1" parent="1" source="lGQirS0EhyKLhU8pr_Ol-1" target="lGQirS0EhyKLhU8pr_Ol-3">
          <mxGeometry relative="1" as="geometry" />
        </mxCell>
        <mxCell id="qg0bX45iYKr7TYXmTfEr-8" value="yes" style="edgeStyle=orthogonalEdgeStyle;curved=1;rounded=1;sketch=0;orthogonalLoop=1;jettySize=auto;html=1;" edge="1" parent="1" source="lGQirS0EhyKLhU8pr_Ol-1" target="lGQirS0EhyKLhU8pr_Ol-20">
          <mxGeometry relative="1" as="geometry" />
        </mxCell>
        <mxCell id="lGQirS0EhyKLhU8pr_Ol-1" value="i &amp;gt; 5" style="rhombus;whiteSpace=wrap;html=1;" vertex="1" parent="1">
          <mxGeometry x="304" y="1200" width="80" height="80" as="geometry" />
        </mxCell>
        <mxCell id="lGQirS0EhyKLhU8pr_Ol-47" value="no" style="edgeStyle=orthogonalEdgeStyle;orthogonalLoop=1;jettySize=auto;html=1;entryX=0.5;entryY=0;entryDx=0;entryDy=0;curved=1;" edge="1" parent="1" source="lGQirS0EhyKLhU8pr_Ol-3" target="lGQirS0EhyKLhU8pr_Ol-46">
          <mxGeometry relative="1" as="geometry" />
        </mxCell>
        <mxCell id="qg0bX45iYKr7TYXmTfEr-9" value="yes" style="edgeStyle=orthogonalEdgeStyle;curved=1;rounded=1;sketch=0;orthogonalLoop=1;jettySize=auto;html=1;" edge="1" parent="1" source="lGQirS0EhyKLhU8pr_Ol-3" target="lGQirS0EhyKLhU8pr_Ol-21">
          <mxGeometry relative="1" as="geometry" />
        </mxCell>
        <mxCell id="lGQirS0EhyKLhU8pr_Ol-3" value="j &amp;gt; 5" style="rhombus;whiteSpace=wrap;html=1;" vertex="1" parent="1">
          <mxGeometry x="304" y="1320" width="80" height="80" as="geometry" />
        </mxCell>
        <mxCell id="lGQirS0EhyKLhU8pr_Ol-5" value="add a to list_of_bigger_than_5" style="whiteSpace=wrap;html=1;" vertex="1" parent="1">
          <mxGeometry x="424" y="250" width="120" height="60" as="geometry" />
        </mxCell>
        <mxCell id="lGQirS0EhyKLhU8pr_Ol-7" value="&lt;span&gt;add b to list_of_bigger_than_5&lt;/span&gt;" style="whiteSpace=wrap;html=1;" vertex="1" parent="1">
          <mxGeometry x="424" y="370" width="120" height="60" as="geometry" />
        </mxCell>
        <mxCell id="lGQirS0EhyKLhU8pr_Ol-9" value="&lt;span&gt;add c to list_of_bigger_than_5&lt;/span&gt;" style="whiteSpace=wrap;html=1;" vertex="1" parent="1">
          <mxGeometry x="424" y="490" width="120" height="60" as="geometry" />
        </mxCell>
        <mxCell id="lGQirS0EhyKLhU8pr_Ol-11" value="&lt;span&gt;add d to list_of_bigger_than_5&lt;/span&gt;" style="whiteSpace=wrap;html=1;" vertex="1" parent="1">
          <mxGeometry x="424" y="610" width="120" height="60" as="geometry" />
        </mxCell>
        <mxCell id="lGQirS0EhyKLhU8pr_Ol-13" value="&lt;span&gt;add e to list_of_bigger_than_5&lt;/span&gt;" style="whiteSpace=wrap;html=1;" vertex="1" parent="1">
          <mxGeometry x="424" y="730" width="120" height="60" as="geometry" />
        </mxCell>
        <mxCell id="lGQirS0EhyKLhU8pr_Ol-15" value="&lt;span&gt;add f to list_of_bigger_than_5&lt;/span&gt;" style="whiteSpace=wrap;html=1;" vertex="1" parent="1">
          <mxGeometry x="424" y="850" width="120" height="60" as="geometry" />
        </mxCell>
        <mxCell id="lGQirS0EhyKLhU8pr_Ol-17" value="&lt;span&gt;add g to list_of_bigger_than_5&lt;/span&gt;" style="whiteSpace=wrap;html=1;" vertex="1" parent="1">
          <mxGeometry x="424" y="970" width="120" height="60" as="geometry" />
        </mxCell>
        <mxCell id="lGQirS0EhyKLhU8pr_Ol-19" value="&lt;span&gt;add h to list_of_bigger_than_5&lt;/span&gt;" style="whiteSpace=wrap;html=1;" vertex="1" parent="1">
          <mxGeometry x="424" y="1090" width="120" height="60" as="geometry" />
        </mxCell>
        <mxCell id="lGQirS0EhyKLhU8pr_Ol-20" value="&lt;span&gt;add i to list_of_bigger_than_5&lt;/span&gt;" style="whiteSpace=wrap;html=1;" vertex="1" parent="1">
          <mxGeometry x="424" y="1210" width="120" height="60" as="geometry" />
        </mxCell>
        <mxCell id="lGQirS0EhyKLhU8pr_Ol-48" style="edgeStyle=orthogonalEdgeStyle;orthogonalLoop=1;jettySize=auto;html=1;entryX=0.5;entryY=0;entryDx=0;entryDy=0;curved=1;" edge="1" parent="1" source="lGQirS0EhyKLhU8pr_Ol-21" target="lGQirS0EhyKLhU8pr_Ol-46">
          <mxGeometry relative="1" as="geometry" />
        </mxCell>
        <mxCell id="lGQirS0EhyKLhU8pr_Ol-21" value="&lt;span&gt;add j to list_of_bigger_than_5&lt;/span&gt;" style="whiteSpace=wrap;html=1;" vertex="1" parent="1">
          <mxGeometry x="424" y="1330" width="120" height="60" as="geometry" />
        </mxCell>
        <mxCell id="lGQirS0EhyKLhU8pr_Ol-24" value="" style="endArrow=classic;html=1;entryX=1;entryY=0;entryDx=0;entryDy=0;exitX=0.5;exitY=1;exitDx=0;exitDy=0;curved=1;" edge="1" parent="1" source="lGQirS0EhyKLhU8pr_Ol-5" target="DUNPQGVu7jWI2Fl0PFPO-8">
          <mxGeometry width="50" height="50" relative="1" as="geometry">
            <mxPoint x="464" y="360" as="sourcePoint" />
            <mxPoint x="514" y="310" as="targetPoint" />
          </mxGeometry>
        </mxCell>
        <mxCell id="lGQirS0EhyKLhU8pr_Ol-25" value="" style="endArrow=classic;html=1;entryX=1;entryY=0;entryDx=0;entryDy=0;exitX=0.5;exitY=1;exitDx=0;exitDy=0;curved=1;" edge="1" parent="1">
          <mxGeometry width="50" height="50" relative="1" as="geometry">
            <mxPoint x="484" y="430" as="sourcePoint" />
            <mxPoint x="364" y="500" as="targetPoint" />
          </mxGeometry>
        </mxCell>
        <mxCell id="lGQirS0EhyKLhU8pr_Ol-26" value="" style="endArrow=classic;html=1;entryX=1;entryY=0;entryDx=0;entryDy=0;exitX=0.5;exitY=1;exitDx=0;exitDy=0;curved=1;" edge="1" parent="1">
          <mxGeometry width="50" height="50" relative="1" as="geometry">
            <mxPoint x="484" y="550" as="sourcePoint" />
            <mxPoint x="364" y="620" as="targetPoint" />
          </mxGeometry>
        </mxCell>
        <mxCell id="lGQirS0EhyKLhU8pr_Ol-27" value="" style="endArrow=classic;html=1;entryX=1;entryY=0;entryDx=0;entryDy=0;exitX=0.5;exitY=1;exitDx=0;exitDy=0;curved=1;" edge="1" parent="1">
          <mxGeometry width="50" height="50" relative="1" as="geometry">
            <mxPoint x="484" y="670" as="sourcePoint" />
            <mxPoint x="364" y="740" as="targetPoint" />
          </mxGeometry>
        </mxCell>
        <mxCell id="lGQirS0EhyKLhU8pr_Ol-28" value="" style="endArrow=classic;html=1;entryX=1;entryY=0;entryDx=0;entryDy=0;exitX=0.5;exitY=1;exitDx=0;exitDy=0;curved=1;" edge="1" parent="1">
          <mxGeometry width="50" height="50" relative="1" as="geometry">
            <mxPoint x="484" y="790" as="sourcePoint" />
            <mxPoint x="364" y="860" as="targetPoint" />
          </mxGeometry>
        </mxCell>
        <mxCell id="lGQirS0EhyKLhU8pr_Ol-29" value="" style="endArrow=classic;html=1;entryX=1;entryY=0;entryDx=0;entryDy=0;exitX=0.5;exitY=1;exitDx=0;exitDy=0;curved=1;" edge="1" parent="1">
          <mxGeometry width="50" height="50" relative="1" as="geometry">
            <mxPoint x="484" y="910" as="sourcePoint" />
            <mxPoint x="364" y="980" as="targetPoint" />
          </mxGeometry>
        </mxCell>
        <mxCell id="lGQirS0EhyKLhU8pr_Ol-30" value="" style="endArrow=classic;html=1;entryX=1;entryY=0;entryDx=0;entryDy=0;exitX=0.5;exitY=1;exitDx=0;exitDy=0;curved=1;" edge="1" parent="1">
          <mxGeometry width="50" height="50" relative="1" as="geometry">
            <mxPoint x="484" y="1030" as="sourcePoint" />
            <mxPoint x="364" y="1100" as="targetPoint" />
          </mxGeometry>
        </mxCell>
        <mxCell id="lGQirS0EhyKLhU8pr_Ol-31" value="" style="endArrow=classic;html=1;entryX=1;entryY=0;entryDx=0;entryDy=0;exitX=0.5;exitY=1;exitDx=0;exitDy=0;curved=1;" edge="1" parent="1">
          <mxGeometry width="50" height="50" relative="1" as="geometry">
            <mxPoint x="484" y="1150" as="sourcePoint" />
            <mxPoint x="364" y="1220" as="targetPoint" />
          </mxGeometry>
        </mxCell>
        <mxCell id="lGQirS0EhyKLhU8pr_Ol-32" value="" style="endArrow=classic;html=1;entryX=1;entryY=0;entryDx=0;entryDy=0;exitX=0.5;exitY=1;exitDx=0;exitDy=0;curved=1;" edge="1" parent="1">
          <mxGeometry width="50" height="50" relative="1" as="geometry">
            <mxPoint x="484" y="1270" as="sourcePoint" />
            <mxPoint x="364" y="1340" as="targetPoint" />
          </mxGeometry>
        </mxCell>
        <mxCell id="lGQirS0EhyKLhU8pr_Ol-50" style="edgeStyle=orthogonalEdgeStyle;orthogonalLoop=1;jettySize=auto;html=1;curved=1;" edge="1" parent="1" source="lGQirS0EhyKLhU8pr_Ol-46" target="lGQirS0EhyKLhU8pr_Ol-49">
          <mxGeometry relative="1" as="geometry" />
        </mxCell>
        <mxCell id="lGQirS0EhyKLhU8pr_Ol-46" value="final_rersoult = add all the integers from list_of_bigger_than_5" style="whiteSpace=wrap;html=1;" vertex="1" parent="1">
          <mxGeometry x="354" y="1480" width="120" height="60" as="geometry" />
        </mxCell>
        <mxCell id="lGQirS0EhyKLhU8pr_Ol-52" style="edgeStyle=orthogonalEdgeStyle;orthogonalLoop=1;jettySize=auto;html=1;curved=1;" edge="1" parent="1" source="lGQirS0EhyKLhU8pr_Ol-49" target="lGQirS0EhyKLhU8pr_Ol-51">
          <mxGeometry relative="1" as="geometry" />
        </mxCell>
        <mxCell id="lGQirS0EhyKLhU8pr_Ol-49" value="output: final_resoult" style="shape=parallelogram;perimeter=parallelogramPerimeter;whiteSpace=wrap;html=1;fixedSize=1;" vertex="1" parent="1">
          <mxGeometry x="354" y="1580" width="120" height="60" as="geometry" />
        </mxCell>
        <mxCell id="lGQirS0EhyKLhU8pr_Ol-51" value="stop" style="ellipse;whiteSpace=wrap;html=1;" vertex="1" parent="1">
          <mxGeometry x="354" y="1680" width="120" height="80" as="geometry" />
        </mxCell>
      </root>
    </mxGraphModel>
  </diagram>
  <diagram id="apzDjPawPNtFV_1-unjf" name="Page-2">
    <mxGraphModel dx="1381" dy="833" grid="1" gridSize="10" guides="1" tooltips="1" connect="1" arrows="1" fold="1" page="1" pageScale="1" pageWidth="827" pageHeight="1169" math="0" shadow="0">
      <root>
        <mxCell id="UHRktAATG_F48fdjcvXp-0" />
        <mxCell id="UHRktAATG_F48fdjcvXp-1" parent="UHRktAATG_F48fdjcvXp-0" />
      </root>
    </mxGraphModel>
  </diagram>
</mxfile>
